G04 #@! TF.FileFunction,Legend,Top*
%FSLAX46Y46*%
G04 Gerber Fmt 4.6, Leading zero omitted, Abs format (unit mm)*
G04 Created by KiCad (PCBNEW 4.0.7-e0-6372~58~ubuntu16.10.1) date Fri Jul 21 11:45:41 2017*
%MOMM*%
%LPD*%
G01*
G04 APERTURE LIST*
%ADD10C,0.100000*%
%ADD11C,0.300000*%
%ADD12C,0.200000*%
%ADD13C,0.120000*%
%ADD14C,0.150000*%
G04 APERTURE END LIST*
D10*
D11*
X153944286Y-109888571D02*
X153230000Y-109888571D01*
X153230000Y-108388571D01*
X154444286Y-109888571D02*
X154444286Y-108388571D01*
X155158572Y-109888571D02*
X155158572Y-108388571D01*
X155658572Y-109460000D01*
X156158572Y-108388571D01*
X156158572Y-109888571D01*
X156872858Y-109102857D02*
X157372858Y-109102857D01*
X157587144Y-109888571D02*
X156872858Y-109888571D01*
X156872858Y-108388571D01*
X157587144Y-108388571D01*
X159087144Y-109888571D02*
X158587144Y-109174286D01*
X158230001Y-109888571D02*
X158230001Y-108388571D01*
X158801429Y-108388571D01*
X158944287Y-108460000D01*
X159015715Y-108531429D01*
X159087144Y-108674286D01*
X159087144Y-108888571D01*
X159015715Y-109031429D01*
X158944287Y-109102857D01*
X158801429Y-109174286D01*
X158230001Y-109174286D01*
X160015715Y-108388571D02*
X160301429Y-108388571D01*
X160444287Y-108460000D01*
X160587144Y-108602857D01*
X160658572Y-108888571D01*
X160658572Y-109388571D01*
X160587144Y-109674286D01*
X160444287Y-109817143D01*
X160301429Y-109888571D01*
X160015715Y-109888571D01*
X159872858Y-109817143D01*
X159730001Y-109674286D01*
X159658572Y-109388571D01*
X159658572Y-108888571D01*
X159730001Y-108602857D01*
X159872858Y-108460000D01*
X160015715Y-108388571D01*
X150372858Y-112438571D02*
X150372858Y-110938571D01*
X150944286Y-110938571D01*
X151087144Y-111010000D01*
X151158572Y-111081429D01*
X151230001Y-111224286D01*
X151230001Y-111438571D01*
X151158572Y-111581429D01*
X151087144Y-111652857D01*
X150944286Y-111724286D01*
X150372858Y-111724286D01*
X151872858Y-112438571D02*
X151872858Y-111438571D01*
X151872858Y-111724286D02*
X151944286Y-111581429D01*
X152015715Y-111510000D01*
X152158572Y-111438571D01*
X152301429Y-111438571D01*
X153015715Y-112438571D02*
X152872857Y-112367143D01*
X152801429Y-112295714D01*
X152730000Y-112152857D01*
X152730000Y-111724286D01*
X152801429Y-111581429D01*
X152872857Y-111510000D01*
X153015715Y-111438571D01*
X153230000Y-111438571D01*
X153372857Y-111510000D01*
X153444286Y-111581429D01*
X153515715Y-111724286D01*
X153515715Y-112152857D01*
X153444286Y-112295714D01*
X153372857Y-112367143D01*
X153230000Y-112438571D01*
X153015715Y-112438571D01*
X153944286Y-111438571D02*
X154515715Y-111438571D01*
X154158572Y-110938571D02*
X154158572Y-112224286D01*
X154230000Y-112367143D01*
X154372858Y-112438571D01*
X154515715Y-112438571D01*
X155230001Y-112438571D02*
X155087143Y-112367143D01*
X155015715Y-112295714D01*
X154944286Y-112152857D01*
X154944286Y-111724286D01*
X155015715Y-111581429D01*
X155087143Y-111510000D01*
X155230001Y-111438571D01*
X155444286Y-111438571D01*
X155587143Y-111510000D01*
X155658572Y-111581429D01*
X155730001Y-111724286D01*
X155730001Y-112152857D01*
X155658572Y-112295714D01*
X155587143Y-112367143D01*
X155444286Y-112438571D01*
X155230001Y-112438571D01*
X156372858Y-112438571D02*
X156372858Y-110938571D01*
X156372858Y-111510000D02*
X156515715Y-111438571D01*
X156801429Y-111438571D01*
X156944286Y-111510000D01*
X157015715Y-111581429D01*
X157087144Y-111724286D01*
X157087144Y-112152857D01*
X157015715Y-112295714D01*
X156944286Y-112367143D01*
X156801429Y-112438571D01*
X156515715Y-112438571D01*
X156372858Y-112367143D01*
X157944287Y-112438571D02*
X157801429Y-112367143D01*
X157730001Y-112295714D01*
X157658572Y-112152857D01*
X157658572Y-111724286D01*
X157730001Y-111581429D01*
X157801429Y-111510000D01*
X157944287Y-111438571D01*
X158158572Y-111438571D01*
X158301429Y-111510000D01*
X158372858Y-111581429D01*
X158444287Y-111724286D01*
X158444287Y-112152857D01*
X158372858Y-112295714D01*
X158301429Y-112367143D01*
X158158572Y-112438571D01*
X157944287Y-112438571D01*
X159730001Y-112438571D02*
X159730001Y-111652857D01*
X159658572Y-111510000D01*
X159515715Y-111438571D01*
X159230001Y-111438571D01*
X159087144Y-111510000D01*
X159730001Y-112367143D02*
X159587144Y-112438571D01*
X159230001Y-112438571D01*
X159087144Y-112367143D01*
X159015715Y-112224286D01*
X159015715Y-112081429D01*
X159087144Y-111938571D01*
X159230001Y-111867143D01*
X159587144Y-111867143D01*
X159730001Y-111795714D01*
X160444287Y-112438571D02*
X160444287Y-111438571D01*
X160444287Y-111724286D02*
X160515715Y-111581429D01*
X160587144Y-111510000D01*
X160730001Y-111438571D01*
X160872858Y-111438571D01*
X162015715Y-112438571D02*
X162015715Y-110938571D01*
X162015715Y-112367143D02*
X161872858Y-112438571D01*
X161587144Y-112438571D01*
X161444286Y-112367143D01*
X161372858Y-112295714D01*
X161301429Y-112152857D01*
X161301429Y-111724286D01*
X161372858Y-111581429D01*
X161444286Y-111510000D01*
X161587144Y-111438571D01*
X161872858Y-111438571D01*
X162015715Y-111510000D01*
X163801429Y-111081429D02*
X163872858Y-111010000D01*
X164015715Y-110938571D01*
X164372858Y-110938571D01*
X164515715Y-111010000D01*
X164587144Y-111081429D01*
X164658572Y-111224286D01*
X164658572Y-111367143D01*
X164587144Y-111581429D01*
X163730001Y-112438571D01*
X164658572Y-112438571D01*
X154480001Y-113488571D02*
X154622858Y-113488571D01*
X154765715Y-113560000D01*
X154837144Y-113631429D01*
X154908573Y-113774286D01*
X154980001Y-114060000D01*
X154980001Y-114417143D01*
X154908573Y-114702857D01*
X154837144Y-114845714D01*
X154765715Y-114917143D01*
X154622858Y-114988571D01*
X154480001Y-114988571D01*
X154337144Y-114917143D01*
X154265715Y-114845714D01*
X154194287Y-114702857D01*
X154122858Y-114417143D01*
X154122858Y-114060000D01*
X154194287Y-113774286D01*
X154265715Y-113631429D01*
X154337144Y-113560000D01*
X154480001Y-113488571D01*
X156408572Y-114988571D02*
X155551429Y-114988571D01*
X155980001Y-114988571D02*
X155980001Y-113488571D01*
X155837144Y-113702857D01*
X155694286Y-113845714D01*
X155551429Y-113917143D01*
X156908572Y-113488571D02*
X157908572Y-113488571D01*
X157265715Y-114988571D01*
X159551428Y-113417143D02*
X158265714Y-115345714D01*
X159908572Y-113488571D02*
X160908572Y-113488571D01*
X160265715Y-114988571D01*
D12*
X207010000Y-123190000D02*
X207010000Y-78740000D01*
X144780000Y-123190000D02*
X207010000Y-123190000D01*
X144780000Y-78740000D02*
X144780000Y-123190000D01*
X207010000Y-78740000D02*
X144780000Y-78740000D01*
D13*
X172466000Y-118110000D02*
G75*
G03X172466000Y-118110000I-2286000J0D01*
G01*
X172466000Y-82550000D02*
G75*
G03X172466000Y-82550000I-2286000J0D01*
G01*
X205486000Y-82550000D02*
G75*
G03X205486000Y-82550000I-2286000J0D01*
G01*
X188300000Y-112900000D02*
X185080000Y-112900000D01*
X185080000Y-112900000D02*
X185080000Y-118120000D01*
X185080000Y-118120000D02*
X188300000Y-118120000D01*
X188300000Y-118120000D02*
X188300000Y-112900000D01*
X186690000Y-112740000D02*
X186690000Y-112900000D01*
X186690000Y-118280000D02*
X186690000Y-118120000D01*
X173000000Y-101850000D02*
X173000000Y-81030000D01*
X173000000Y-81030000D02*
X182600000Y-81030000D01*
X182600000Y-81030000D02*
X182600000Y-101850000D01*
X182600000Y-101850000D02*
X173000000Y-101850000D01*
D14*
X166370000Y-101600000D02*
X166370000Y-81280000D01*
X166370000Y-81280000D02*
X146050000Y-81280000D01*
X146050000Y-81280000D02*
X146050000Y-101600000D01*
X146050000Y-101600000D02*
X166370000Y-101600000D01*
D13*
X166620000Y-96240000D02*
X145800000Y-96240000D01*
X145800000Y-96240000D02*
X145800000Y-86640000D01*
X145800000Y-86640000D02*
X166620000Y-86640000D01*
X166620000Y-86640000D02*
X166620000Y-96240000D01*
X189290000Y-81220000D02*
X186630000Y-81220000D01*
X189290000Y-106680000D02*
X189290000Y-81220000D01*
X186630000Y-106680000D02*
X186630000Y-81220000D01*
X189290000Y-106680000D02*
X186630000Y-106680000D01*
X189290000Y-107950000D02*
X189290000Y-109280000D01*
X189290000Y-109280000D02*
X187960000Y-109280000D01*
X175890000Y-113430000D02*
X175890000Y-114690000D01*
X175890000Y-120250000D02*
X175890000Y-118990000D01*
X179650000Y-113430000D02*
X175890000Y-113430000D01*
X181900000Y-120250000D02*
X175890000Y-120250000D01*
X177840000Y-110730000D02*
X177840000Y-102630000D01*
X177800000Y-110730000D02*
X177800000Y-102630000D01*
X177760000Y-110730000D02*
X177760000Y-102630000D01*
X177720000Y-110729000D02*
X177720000Y-102631000D01*
X177680000Y-110727000D02*
X177680000Y-102633000D01*
X177640000Y-110726000D02*
X177640000Y-102634000D01*
X177600000Y-110723000D02*
X177600000Y-102637000D01*
X177560000Y-110721000D02*
X177560000Y-102639000D01*
X177520000Y-110718000D02*
X177520000Y-102642000D01*
X177480000Y-110715000D02*
X177480000Y-102645000D01*
X177440000Y-110711000D02*
X177440000Y-102649000D01*
X177400000Y-110707000D02*
X177400000Y-102653000D01*
X177360000Y-110702000D02*
X177360000Y-102658000D01*
X177320000Y-110697000D02*
X177320000Y-102663000D01*
X177280000Y-110692000D02*
X177280000Y-102668000D01*
X177240000Y-110686000D02*
X177240000Y-102674000D01*
X177200000Y-110680000D02*
X177200000Y-102680000D01*
X177160000Y-110674000D02*
X177160000Y-102686000D01*
X177119000Y-110667000D02*
X177119000Y-102693000D01*
X177079000Y-110659000D02*
X177079000Y-102701000D01*
X177039000Y-110651000D02*
X177039000Y-102709000D01*
X176999000Y-110643000D02*
X176999000Y-102717000D01*
X176959000Y-110635000D02*
X176959000Y-102725000D01*
X176919000Y-110626000D02*
X176919000Y-102734000D01*
X176879000Y-110616000D02*
X176879000Y-102744000D01*
X176839000Y-110606000D02*
X176839000Y-102754000D01*
X176799000Y-110596000D02*
X176799000Y-102764000D01*
X176759000Y-110585000D02*
X176759000Y-102775000D01*
X176719000Y-110574000D02*
X176719000Y-102786000D01*
X176679000Y-110563000D02*
X176679000Y-102797000D01*
X176639000Y-110550000D02*
X176639000Y-102810000D01*
X176599000Y-110538000D02*
X176599000Y-102822000D01*
X176559000Y-110525000D02*
X176559000Y-102835000D01*
X176519000Y-110512000D02*
X176519000Y-102848000D01*
X176479000Y-110498000D02*
X176479000Y-102862000D01*
X176439000Y-110483000D02*
X176439000Y-102877000D01*
X176399000Y-110469000D02*
X176399000Y-102891000D01*
X176359000Y-110453000D02*
X176359000Y-102907000D01*
X176319000Y-110438000D02*
X176319000Y-107660000D01*
X176319000Y-105700000D02*
X176319000Y-102922000D01*
X176279000Y-110421000D02*
X176279000Y-107660000D01*
X176279000Y-105700000D02*
X176279000Y-102939000D01*
X176239000Y-110405000D02*
X176239000Y-107660000D01*
X176239000Y-105700000D02*
X176239000Y-102955000D01*
X176199000Y-110387000D02*
X176199000Y-107660000D01*
X176199000Y-105700000D02*
X176199000Y-102973000D01*
X176159000Y-110370000D02*
X176159000Y-107660000D01*
X176159000Y-105700000D02*
X176159000Y-102990000D01*
X176119000Y-110351000D02*
X176119000Y-107660000D01*
X176119000Y-105700000D02*
X176119000Y-103009000D01*
X176079000Y-110332000D02*
X176079000Y-107660000D01*
X176079000Y-105700000D02*
X176079000Y-103028000D01*
X176039000Y-110313000D02*
X176039000Y-107660000D01*
X176039000Y-105700000D02*
X176039000Y-103047000D01*
X175999000Y-110293000D02*
X175999000Y-107660000D01*
X175999000Y-105700000D02*
X175999000Y-103067000D01*
X175959000Y-110273000D02*
X175959000Y-107660000D01*
X175959000Y-105700000D02*
X175959000Y-103087000D01*
X175919000Y-110252000D02*
X175919000Y-107660000D01*
X175919000Y-105700000D02*
X175919000Y-103108000D01*
X175879000Y-110230000D02*
X175879000Y-107660000D01*
X175879000Y-105700000D02*
X175879000Y-103130000D01*
X175839000Y-110208000D02*
X175839000Y-107660000D01*
X175839000Y-105700000D02*
X175839000Y-103152000D01*
X175799000Y-110185000D02*
X175799000Y-107660000D01*
X175799000Y-105700000D02*
X175799000Y-103175000D01*
X175759000Y-110162000D02*
X175759000Y-107660000D01*
X175759000Y-105700000D02*
X175759000Y-103198000D01*
X175719000Y-110138000D02*
X175719000Y-107660000D01*
X175719000Y-105700000D02*
X175719000Y-103222000D01*
X175679000Y-110114000D02*
X175679000Y-107660000D01*
X175679000Y-105700000D02*
X175679000Y-103246000D01*
X175639000Y-110088000D02*
X175639000Y-107660000D01*
X175639000Y-105700000D02*
X175639000Y-103272000D01*
X175599000Y-110063000D02*
X175599000Y-107660000D01*
X175599000Y-105700000D02*
X175599000Y-103297000D01*
X175559000Y-110036000D02*
X175559000Y-107660000D01*
X175559000Y-105700000D02*
X175559000Y-103324000D01*
X175519000Y-110009000D02*
X175519000Y-107660000D01*
X175519000Y-105700000D02*
X175519000Y-103351000D01*
X175479000Y-109981000D02*
X175479000Y-107660000D01*
X175479000Y-105700000D02*
X175479000Y-103379000D01*
X175439000Y-109952000D02*
X175439000Y-107660000D01*
X175439000Y-105700000D02*
X175439000Y-103408000D01*
X175399000Y-109923000D02*
X175399000Y-107660000D01*
X175399000Y-105700000D02*
X175399000Y-103437000D01*
X175359000Y-109893000D02*
X175359000Y-107660000D01*
X175359000Y-105700000D02*
X175359000Y-103467000D01*
X175319000Y-109862000D02*
X175319000Y-107660000D01*
X175319000Y-105700000D02*
X175319000Y-103498000D01*
X175279000Y-109830000D02*
X175279000Y-107660000D01*
X175279000Y-105700000D02*
X175279000Y-103530000D01*
X175239000Y-109798000D02*
X175239000Y-107660000D01*
X175239000Y-105700000D02*
X175239000Y-103562000D01*
X175199000Y-109764000D02*
X175199000Y-107660000D01*
X175199000Y-105700000D02*
X175199000Y-103596000D01*
X175159000Y-109730000D02*
X175159000Y-107660000D01*
X175159000Y-105700000D02*
X175159000Y-103630000D01*
X175119000Y-109695000D02*
X175119000Y-107660000D01*
X175119000Y-105700000D02*
X175119000Y-103665000D01*
X175079000Y-109659000D02*
X175079000Y-107660000D01*
X175079000Y-105700000D02*
X175079000Y-103701000D01*
X175039000Y-109622000D02*
X175039000Y-107660000D01*
X175039000Y-105700000D02*
X175039000Y-103738000D01*
X174999000Y-109584000D02*
X174999000Y-107660000D01*
X174999000Y-105700000D02*
X174999000Y-103776000D01*
X174959000Y-109545000D02*
X174959000Y-107660000D01*
X174959000Y-105700000D02*
X174959000Y-103815000D01*
X174919000Y-109504000D02*
X174919000Y-107660000D01*
X174919000Y-105700000D02*
X174919000Y-103856000D01*
X174879000Y-109463000D02*
X174879000Y-107660000D01*
X174879000Y-105700000D02*
X174879000Y-103897000D01*
X174839000Y-109420000D02*
X174839000Y-107660000D01*
X174839000Y-105700000D02*
X174839000Y-103940000D01*
X174799000Y-109377000D02*
X174799000Y-107660000D01*
X174799000Y-105700000D02*
X174799000Y-103983000D01*
X174759000Y-109332000D02*
X174759000Y-107660000D01*
X174759000Y-105700000D02*
X174759000Y-104028000D01*
X174719000Y-109285000D02*
X174719000Y-107660000D01*
X174719000Y-105700000D02*
X174719000Y-104075000D01*
X174679000Y-109237000D02*
X174679000Y-107660000D01*
X174679000Y-105700000D02*
X174679000Y-104123000D01*
X174639000Y-109188000D02*
X174639000Y-107660000D01*
X174639000Y-105700000D02*
X174639000Y-104172000D01*
X174599000Y-109137000D02*
X174599000Y-107660000D01*
X174599000Y-105700000D02*
X174599000Y-104223000D01*
X174559000Y-109084000D02*
X174559000Y-107660000D01*
X174559000Y-105700000D02*
X174559000Y-104276000D01*
X174519000Y-109029000D02*
X174519000Y-107660000D01*
X174519000Y-105700000D02*
X174519000Y-104331000D01*
X174479000Y-108973000D02*
X174479000Y-107660000D01*
X174479000Y-105700000D02*
X174479000Y-104387000D01*
X174439000Y-108914000D02*
X174439000Y-107660000D01*
X174439000Y-105700000D02*
X174439000Y-104446000D01*
X174399000Y-108853000D02*
X174399000Y-107660000D01*
X174399000Y-105700000D02*
X174399000Y-104507000D01*
X174359000Y-108789000D02*
X174359000Y-104571000D01*
X174319000Y-108723000D02*
X174319000Y-104637000D01*
X174279000Y-108654000D02*
X174279000Y-104706000D01*
X174239000Y-108582000D02*
X174239000Y-104778000D01*
X174199000Y-108506000D02*
X174199000Y-104854000D01*
X174159000Y-108425000D02*
X174159000Y-104935000D01*
X174119000Y-108340000D02*
X174119000Y-105020000D01*
X174079000Y-108250000D02*
X174079000Y-105110000D01*
X174039000Y-108153000D02*
X174039000Y-105207000D01*
X173999000Y-108049000D02*
X173999000Y-105311000D01*
X173959000Y-107934000D02*
X173959000Y-105426000D01*
X173919000Y-107807000D02*
X173919000Y-105553000D01*
X173879000Y-107663000D02*
X173879000Y-105697000D01*
X173839000Y-107494000D02*
X173839000Y-105866000D01*
X173799000Y-107278000D02*
X173799000Y-106082000D01*
X173759000Y-106926000D02*
X173759000Y-106434000D01*
X182540000Y-106680000D02*
X181340000Y-106680000D01*
X181940000Y-107330000D02*
X181940000Y-106030000D01*
X173868684Y-107658135D02*
G75*
G03X181810856Y-107660000I3971316J978135D01*
G01*
X173868684Y-105701865D02*
G75*
G02X181810856Y-105700000I3971316J-978135D01*
G01*
X173868684Y-105701865D02*
G75*
G03X173869144Y-107660000I3971316J-978135D01*
G01*
X199630000Y-115530000D02*
X191530000Y-115530000D01*
X199630000Y-115570000D02*
X191530000Y-115570000D01*
X199630000Y-115610000D02*
X191530000Y-115610000D01*
X199629000Y-115650000D02*
X191531000Y-115650000D01*
X199627000Y-115690000D02*
X191533000Y-115690000D01*
X199626000Y-115730000D02*
X191534000Y-115730000D01*
X199623000Y-115770000D02*
X191537000Y-115770000D01*
X199621000Y-115810000D02*
X191539000Y-115810000D01*
X199618000Y-115850000D02*
X191542000Y-115850000D01*
X199615000Y-115890000D02*
X191545000Y-115890000D01*
X199611000Y-115930000D02*
X191549000Y-115930000D01*
X199607000Y-115970000D02*
X191553000Y-115970000D01*
X199602000Y-116010000D02*
X191558000Y-116010000D01*
X199597000Y-116050000D02*
X191563000Y-116050000D01*
X199592000Y-116090000D02*
X191568000Y-116090000D01*
X199586000Y-116130000D02*
X191574000Y-116130000D01*
X199580000Y-116170000D02*
X191580000Y-116170000D01*
X199574000Y-116210000D02*
X191586000Y-116210000D01*
X199567000Y-116251000D02*
X191593000Y-116251000D01*
X199559000Y-116291000D02*
X191601000Y-116291000D01*
X199551000Y-116331000D02*
X191609000Y-116331000D01*
X199543000Y-116371000D02*
X191617000Y-116371000D01*
X199535000Y-116411000D02*
X191625000Y-116411000D01*
X199526000Y-116451000D02*
X191634000Y-116451000D01*
X199516000Y-116491000D02*
X191644000Y-116491000D01*
X199506000Y-116531000D02*
X191654000Y-116531000D01*
X199496000Y-116571000D02*
X191664000Y-116571000D01*
X199485000Y-116611000D02*
X191675000Y-116611000D01*
X199474000Y-116651000D02*
X191686000Y-116651000D01*
X199463000Y-116691000D02*
X191697000Y-116691000D01*
X199450000Y-116731000D02*
X191710000Y-116731000D01*
X199438000Y-116771000D02*
X191722000Y-116771000D01*
X199425000Y-116811000D02*
X191735000Y-116811000D01*
X199412000Y-116851000D02*
X191748000Y-116851000D01*
X199398000Y-116891000D02*
X191762000Y-116891000D01*
X199383000Y-116931000D02*
X191777000Y-116931000D01*
X199369000Y-116971000D02*
X191791000Y-116971000D01*
X199353000Y-117011000D02*
X191807000Y-117011000D01*
X199338000Y-117051000D02*
X196560000Y-117051000D01*
X194600000Y-117051000D02*
X191822000Y-117051000D01*
X199321000Y-117091000D02*
X196560000Y-117091000D01*
X194600000Y-117091000D02*
X191839000Y-117091000D01*
X199305000Y-117131000D02*
X196560000Y-117131000D01*
X194600000Y-117131000D02*
X191855000Y-117131000D01*
X199287000Y-117171000D02*
X196560000Y-117171000D01*
X194600000Y-117171000D02*
X191873000Y-117171000D01*
X199270000Y-117211000D02*
X196560000Y-117211000D01*
X194600000Y-117211000D02*
X191890000Y-117211000D01*
X199251000Y-117251000D02*
X196560000Y-117251000D01*
X194600000Y-117251000D02*
X191909000Y-117251000D01*
X199232000Y-117291000D02*
X196560000Y-117291000D01*
X194600000Y-117291000D02*
X191928000Y-117291000D01*
X199213000Y-117331000D02*
X196560000Y-117331000D01*
X194600000Y-117331000D02*
X191947000Y-117331000D01*
X199193000Y-117371000D02*
X196560000Y-117371000D01*
X194600000Y-117371000D02*
X191967000Y-117371000D01*
X199173000Y-117411000D02*
X196560000Y-117411000D01*
X194600000Y-117411000D02*
X191987000Y-117411000D01*
X199152000Y-117451000D02*
X196560000Y-117451000D01*
X194600000Y-117451000D02*
X192008000Y-117451000D01*
X199130000Y-117491000D02*
X196560000Y-117491000D01*
X194600000Y-117491000D02*
X192030000Y-117491000D01*
X199108000Y-117531000D02*
X196560000Y-117531000D01*
X194600000Y-117531000D02*
X192052000Y-117531000D01*
X199085000Y-117571000D02*
X196560000Y-117571000D01*
X194600000Y-117571000D02*
X192075000Y-117571000D01*
X199062000Y-117611000D02*
X196560000Y-117611000D01*
X194600000Y-117611000D02*
X192098000Y-117611000D01*
X199038000Y-117651000D02*
X196560000Y-117651000D01*
X194600000Y-117651000D02*
X192122000Y-117651000D01*
X199014000Y-117691000D02*
X196560000Y-117691000D01*
X194600000Y-117691000D02*
X192146000Y-117691000D01*
X198988000Y-117731000D02*
X196560000Y-117731000D01*
X194600000Y-117731000D02*
X192172000Y-117731000D01*
X198963000Y-117771000D02*
X196560000Y-117771000D01*
X194600000Y-117771000D02*
X192197000Y-117771000D01*
X198936000Y-117811000D02*
X196560000Y-117811000D01*
X194600000Y-117811000D02*
X192224000Y-117811000D01*
X198909000Y-117851000D02*
X196560000Y-117851000D01*
X194600000Y-117851000D02*
X192251000Y-117851000D01*
X198881000Y-117891000D02*
X196560000Y-117891000D01*
X194600000Y-117891000D02*
X192279000Y-117891000D01*
X198852000Y-117931000D02*
X196560000Y-117931000D01*
X194600000Y-117931000D02*
X192308000Y-117931000D01*
X198823000Y-117971000D02*
X196560000Y-117971000D01*
X194600000Y-117971000D02*
X192337000Y-117971000D01*
X198793000Y-118011000D02*
X196560000Y-118011000D01*
X194600000Y-118011000D02*
X192367000Y-118011000D01*
X198762000Y-118051000D02*
X196560000Y-118051000D01*
X194600000Y-118051000D02*
X192398000Y-118051000D01*
X198730000Y-118091000D02*
X196560000Y-118091000D01*
X194600000Y-118091000D02*
X192430000Y-118091000D01*
X198698000Y-118131000D02*
X196560000Y-118131000D01*
X194600000Y-118131000D02*
X192462000Y-118131000D01*
X198664000Y-118171000D02*
X196560000Y-118171000D01*
X194600000Y-118171000D02*
X192496000Y-118171000D01*
X198630000Y-118211000D02*
X196560000Y-118211000D01*
X194600000Y-118211000D02*
X192530000Y-118211000D01*
X198595000Y-118251000D02*
X196560000Y-118251000D01*
X194600000Y-118251000D02*
X192565000Y-118251000D01*
X198559000Y-118291000D02*
X196560000Y-118291000D01*
X194600000Y-118291000D02*
X192601000Y-118291000D01*
X198522000Y-118331000D02*
X196560000Y-118331000D01*
X194600000Y-118331000D02*
X192638000Y-118331000D01*
X198484000Y-118371000D02*
X196560000Y-118371000D01*
X194600000Y-118371000D02*
X192676000Y-118371000D01*
X198445000Y-118411000D02*
X196560000Y-118411000D01*
X194600000Y-118411000D02*
X192715000Y-118411000D01*
X198404000Y-118451000D02*
X196560000Y-118451000D01*
X194600000Y-118451000D02*
X192756000Y-118451000D01*
X198363000Y-118491000D02*
X196560000Y-118491000D01*
X194600000Y-118491000D02*
X192797000Y-118491000D01*
X198320000Y-118531000D02*
X196560000Y-118531000D01*
X194600000Y-118531000D02*
X192840000Y-118531000D01*
X198277000Y-118571000D02*
X196560000Y-118571000D01*
X194600000Y-118571000D02*
X192883000Y-118571000D01*
X198232000Y-118611000D02*
X196560000Y-118611000D01*
X194600000Y-118611000D02*
X192928000Y-118611000D01*
X198185000Y-118651000D02*
X196560000Y-118651000D01*
X194600000Y-118651000D02*
X192975000Y-118651000D01*
X198137000Y-118691000D02*
X196560000Y-118691000D01*
X194600000Y-118691000D02*
X193023000Y-118691000D01*
X198088000Y-118731000D02*
X196560000Y-118731000D01*
X194600000Y-118731000D02*
X193072000Y-118731000D01*
X198037000Y-118771000D02*
X196560000Y-118771000D01*
X194600000Y-118771000D02*
X193123000Y-118771000D01*
X197984000Y-118811000D02*
X196560000Y-118811000D01*
X194600000Y-118811000D02*
X193176000Y-118811000D01*
X197929000Y-118851000D02*
X196560000Y-118851000D01*
X194600000Y-118851000D02*
X193231000Y-118851000D01*
X197873000Y-118891000D02*
X196560000Y-118891000D01*
X194600000Y-118891000D02*
X193287000Y-118891000D01*
X197814000Y-118931000D02*
X196560000Y-118931000D01*
X194600000Y-118931000D02*
X193346000Y-118931000D01*
X197753000Y-118971000D02*
X196560000Y-118971000D01*
X194600000Y-118971000D02*
X193407000Y-118971000D01*
X197689000Y-119011000D02*
X193471000Y-119011000D01*
X197623000Y-119051000D02*
X193537000Y-119051000D01*
X197554000Y-119091000D02*
X193606000Y-119091000D01*
X197482000Y-119131000D02*
X193678000Y-119131000D01*
X197406000Y-119171000D02*
X193754000Y-119171000D01*
X197325000Y-119211000D02*
X193835000Y-119211000D01*
X197240000Y-119251000D02*
X193920000Y-119251000D01*
X197150000Y-119291000D02*
X194010000Y-119291000D01*
X197053000Y-119331000D02*
X194107000Y-119331000D01*
X196949000Y-119371000D02*
X194211000Y-119371000D01*
X196834000Y-119411000D02*
X194326000Y-119411000D01*
X196707000Y-119451000D02*
X194453000Y-119451000D01*
X196563000Y-119491000D02*
X194597000Y-119491000D01*
X196394000Y-119531000D02*
X194766000Y-119531000D01*
X196178000Y-119571000D02*
X194982000Y-119571000D01*
X195826000Y-119611000D02*
X195334000Y-119611000D01*
X195580000Y-110830000D02*
X195580000Y-112030000D01*
X196230000Y-111430000D02*
X194930000Y-111430000D01*
X196558135Y-119501316D02*
G75*
G03X196560000Y-111559144I-978135J3971316D01*
G01*
X194601865Y-119501316D02*
G75*
G02X194600000Y-111559144I978135J3971316D01*
G01*
X194601865Y-119501316D02*
G75*
G03X196560000Y-119500856I978135J3971316D01*
G01*
X205486000Y-118110000D02*
G75*
G03X205486000Y-118110000I-2286000J0D01*
G01*
D14*
X168846667Y-115514381D02*
X168513333Y-115038190D01*
X168275238Y-115514381D02*
X168275238Y-114514381D01*
X168656191Y-114514381D01*
X168751429Y-114562000D01*
X168799048Y-114609619D01*
X168846667Y-114704857D01*
X168846667Y-114847714D01*
X168799048Y-114942952D01*
X168751429Y-114990571D01*
X168656191Y-115038190D01*
X168275238Y-115038190D01*
X169275238Y-114990571D02*
X169608572Y-114990571D01*
X169751429Y-115514381D02*
X169275238Y-115514381D01*
X169275238Y-114514381D01*
X169751429Y-114514381D01*
X170513334Y-114990571D02*
X170180000Y-114990571D01*
X170180000Y-115514381D02*
X170180000Y-114514381D01*
X170656191Y-114514381D01*
X171180000Y-114514381D02*
X171180000Y-114752476D01*
X170941905Y-114657238D02*
X171180000Y-114752476D01*
X171418096Y-114657238D01*
X171037143Y-114942952D02*
X171180000Y-114752476D01*
X171322858Y-114942952D01*
X171941905Y-114514381D02*
X171941905Y-114752476D01*
X171703810Y-114657238D02*
X171941905Y-114752476D01*
X172180001Y-114657238D01*
X171799048Y-114942952D02*
X171941905Y-114752476D01*
X172084763Y-114942952D01*
X168846667Y-79954381D02*
X168513333Y-79478190D01*
X168275238Y-79954381D02*
X168275238Y-78954381D01*
X168656191Y-78954381D01*
X168751429Y-79002000D01*
X168799048Y-79049619D01*
X168846667Y-79144857D01*
X168846667Y-79287714D01*
X168799048Y-79382952D01*
X168751429Y-79430571D01*
X168656191Y-79478190D01*
X168275238Y-79478190D01*
X169275238Y-79430571D02*
X169608572Y-79430571D01*
X169751429Y-79954381D02*
X169275238Y-79954381D01*
X169275238Y-78954381D01*
X169751429Y-78954381D01*
X170513334Y-79430571D02*
X170180000Y-79430571D01*
X170180000Y-79954381D02*
X170180000Y-78954381D01*
X170656191Y-78954381D01*
X171180000Y-78954381D02*
X171180000Y-79192476D01*
X170941905Y-79097238D02*
X171180000Y-79192476D01*
X171418096Y-79097238D01*
X171037143Y-79382952D02*
X171180000Y-79192476D01*
X171322858Y-79382952D01*
X171941905Y-78954381D02*
X171941905Y-79192476D01*
X171703810Y-79097238D02*
X171941905Y-79192476D01*
X172180001Y-79097238D01*
X171799048Y-79382952D02*
X171941905Y-79192476D01*
X172084763Y-79382952D01*
X201866667Y-79954381D02*
X201533333Y-79478190D01*
X201295238Y-79954381D02*
X201295238Y-78954381D01*
X201676191Y-78954381D01*
X201771429Y-79002000D01*
X201819048Y-79049619D01*
X201866667Y-79144857D01*
X201866667Y-79287714D01*
X201819048Y-79382952D01*
X201771429Y-79430571D01*
X201676191Y-79478190D01*
X201295238Y-79478190D01*
X202295238Y-79430571D02*
X202628572Y-79430571D01*
X202771429Y-79954381D02*
X202295238Y-79954381D01*
X202295238Y-78954381D01*
X202771429Y-78954381D01*
X203533334Y-79430571D02*
X203200000Y-79430571D01*
X203200000Y-79954381D02*
X203200000Y-78954381D01*
X203676191Y-78954381D01*
X204200000Y-78954381D02*
X204200000Y-79192476D01*
X203961905Y-79097238D02*
X204200000Y-79192476D01*
X204438096Y-79097238D01*
X204057143Y-79382952D02*
X204200000Y-79192476D01*
X204342858Y-79382952D01*
X204961905Y-78954381D02*
X204961905Y-79192476D01*
X204723810Y-79097238D02*
X204961905Y-79192476D01*
X205200001Y-79097238D01*
X204819048Y-79382952D02*
X204961905Y-79192476D01*
X205104763Y-79382952D01*
X189657143Y-115676666D02*
X189704762Y-115724285D01*
X189752381Y-115867142D01*
X189752381Y-115962380D01*
X189704762Y-116105238D01*
X189609524Y-116200476D01*
X189514286Y-116248095D01*
X189323810Y-116295714D01*
X189180952Y-116295714D01*
X188990476Y-116248095D01*
X188895238Y-116200476D01*
X188800000Y-116105238D01*
X188752381Y-115962380D01*
X188752381Y-115867142D01*
X188800000Y-115724285D01*
X188847619Y-115676666D01*
X188847619Y-115295714D02*
X188800000Y-115248095D01*
X188752381Y-115152857D01*
X188752381Y-114914761D01*
X188800000Y-114819523D01*
X188847619Y-114771904D01*
X188942857Y-114724285D01*
X189038095Y-114724285D01*
X189180952Y-114771904D01*
X189752381Y-115343333D01*
X189752381Y-114724285D01*
D13*
X181242381Y-96214285D02*
X181242381Y-96785714D01*
X181242381Y-96500000D02*
X180242381Y-96500000D01*
X180385238Y-96595238D01*
X180480476Y-96690476D01*
X180528095Y-96785714D01*
D14*
D13*
X161555715Y-88902381D02*
X160984286Y-88902381D01*
X161270000Y-88902381D02*
X161270000Y-87902381D01*
X161174762Y-88045238D01*
X161079524Y-88140476D01*
X160984286Y-88188095D01*
D14*
X187626667Y-109732381D02*
X187626667Y-110446667D01*
X187579047Y-110589524D01*
X187483809Y-110684762D01*
X187340952Y-110732381D01*
X187245714Y-110732381D01*
X188626667Y-110732381D02*
X188055238Y-110732381D01*
X188340952Y-110732381D02*
X188340952Y-109732381D01*
X188245714Y-109875238D01*
X188150476Y-109970476D01*
X188055238Y-110018095D01*
X177038095Y-120792381D02*
X177038095Y-121601905D01*
X177085714Y-121697143D01*
X177133333Y-121744762D01*
X177228571Y-121792381D01*
X177419048Y-121792381D01*
X177514286Y-121744762D01*
X177561905Y-121697143D01*
X177609524Y-121601905D01*
X177609524Y-120792381D01*
X178609524Y-121792381D02*
X178038095Y-121792381D01*
X178323809Y-121792381D02*
X178323809Y-120792381D01*
X178228571Y-120935238D01*
X178133333Y-121030476D01*
X178038095Y-121078095D01*
X177673334Y-112097143D02*
X177625715Y-112144762D01*
X177482858Y-112192381D01*
X177387620Y-112192381D01*
X177244762Y-112144762D01*
X177149524Y-112049524D01*
X177101905Y-111954286D01*
X177054286Y-111763810D01*
X177054286Y-111620952D01*
X177101905Y-111430476D01*
X177149524Y-111335238D01*
X177244762Y-111240000D01*
X177387620Y-111192381D01*
X177482858Y-111192381D01*
X177625715Y-111240000D01*
X177673334Y-111287619D01*
X178006667Y-111192381D02*
X178625715Y-111192381D01*
X178292381Y-111573333D01*
X178435239Y-111573333D01*
X178530477Y-111620952D01*
X178578096Y-111668571D01*
X178625715Y-111763810D01*
X178625715Y-112001905D01*
X178578096Y-112097143D01*
X178530477Y-112144762D01*
X178435239Y-112192381D01*
X178149524Y-112192381D01*
X178054286Y-112144762D01*
X178006667Y-112097143D01*
X200997143Y-115696666D02*
X201044762Y-115744285D01*
X201092381Y-115887142D01*
X201092381Y-115982380D01*
X201044762Y-116125238D01*
X200949524Y-116220476D01*
X200854286Y-116268095D01*
X200663810Y-116315714D01*
X200520952Y-116315714D01*
X200330476Y-116268095D01*
X200235238Y-116220476D01*
X200140000Y-116125238D01*
X200092381Y-115982380D01*
X200092381Y-115887142D01*
X200140000Y-115744285D01*
X200187619Y-115696666D01*
X201092381Y-114744285D02*
X201092381Y-115315714D01*
X201092381Y-115030000D02*
X200092381Y-115030000D01*
X200235238Y-115125238D01*
X200330476Y-115220476D01*
X200378095Y-115315714D01*
X201866667Y-115514381D02*
X201533333Y-115038190D01*
X201295238Y-115514381D02*
X201295238Y-114514381D01*
X201676191Y-114514381D01*
X201771429Y-114562000D01*
X201819048Y-114609619D01*
X201866667Y-114704857D01*
X201866667Y-114847714D01*
X201819048Y-114942952D01*
X201771429Y-114990571D01*
X201676191Y-115038190D01*
X201295238Y-115038190D01*
X202295238Y-114990571D02*
X202628572Y-114990571D01*
X202771429Y-115514381D02*
X202295238Y-115514381D01*
X202295238Y-114514381D01*
X202771429Y-114514381D01*
X203533334Y-114990571D02*
X203200000Y-114990571D01*
X203200000Y-115514381D02*
X203200000Y-114514381D01*
X203676191Y-114514381D01*
X204200000Y-114514381D02*
X204200000Y-114752476D01*
X203961905Y-114657238D02*
X204200000Y-114752476D01*
X204438096Y-114657238D01*
X204057143Y-114942952D02*
X204200000Y-114752476D01*
X204342858Y-114942952D01*
X204961905Y-114514381D02*
X204961905Y-114752476D01*
X204723810Y-114657238D02*
X204961905Y-114752476D01*
X205200001Y-114657238D01*
X204819048Y-114942952D02*
X204961905Y-114752476D01*
X205104763Y-114942952D01*
M02*
