M48
;DRILL file {KiCad 4.0.7-e0-6372~58~ubuntu16.10.1} date Fri Jul 21 11:47:57 2017
;FORMAT={-:-/ absolute / inch / decimal}
FMAT,2
INCH,TZ
T1C0.031
T2C0.032
T3C0.039
T4C0.040
T5C0.120
%
G90
G05
M72
T1
X5.95Y-3.25
X5.95Y-3.95
X6.05Y-3.25
X6.05Y-3.95
X6.15Y-3.25
X6.15Y-3.95
X6.25Y-3.25
X6.25Y-3.95
X6.35Y-3.25
X6.35Y-3.95
X6.9031Y-4.2
X7.1Y-4.2
X7.35Y-4.4
X7.35Y-4.6953
X7.7Y-4.45
X7.7Y-4.6469
T2
X7.5Y-3.25
X7.5Y-3.35
X7.5Y-3.45
X7.5Y-3.55
X7.5Y-3.65
X7.5Y-3.75
X7.5Y-3.85
X7.5Y-3.95
X7.5Y-4.05
X7.5Y-4.15
X7.5Y-4.25
X7.6Y-3.25
X7.6Y-3.35
X7.6Y-3.45
X7.6Y-3.55
X7.6Y-3.65
X7.6Y-3.75
X7.6Y-3.85
X7.6Y-3.95
X7.6Y-4.05
X7.6Y-4.15
X7.6Y-4.25
X7.7Y-3.25
X7.7Y-3.35
X7.7Y-3.45
X7.7Y-3.55
X7.7Y-3.65
X7.7Y-3.75
X7.7Y-3.85
X7.7Y-3.95
X7.7Y-4.05
X7.7Y-4.15
X7.7Y-4.25
X7.8Y-3.25
X7.8Y-3.35
X7.8Y-3.45
X7.8Y-3.55
X7.8Y-3.65
X7.8Y-3.75
X7.8Y-3.85
X7.8Y-3.95
X7.8Y-4.05
X7.8Y-4.15
X7.8Y-4.25
X7.9Y-3.45
X7.9Y-3.55
X7.9Y-3.65
X7.9Y-3.75
X7.9Y-3.85
X7.9Y-3.95
X7.9Y-4.05
X7.9Y-4.15
X7.9Y-4.25
X8.Y-3.45
X8.Y-3.55
X8.Y-3.65
X8.Y-3.75
X8.Y-3.85
X8.Y-3.95
X8.Y-4.05
X8.Y-4.15
X8.Y-4.25
T3
X7.4Y-3.25
X7.4Y-3.35
X7.4Y-3.45
X7.4Y-3.55
X7.4Y-3.65
X7.4Y-3.75
X7.4Y-3.85
X7.4Y-3.95
X7.4Y-4.05
X7.4Y-4.15
X7.4Y-4.25
T4
X5.95Y-3.55
X5.95Y-3.65
X6.05Y-3.55
X6.05Y-3.65
X6.15Y-3.55
X6.15Y-3.65
X6.25Y-3.55
X6.25Y-3.65
X6.35Y-3.55
X6.35Y-3.65
X6.95Y-3.4
X6.95Y-3.5
X6.95Y-3.6
X6.95Y-3.7
X6.95Y-3.8
X7.05Y-3.4
X7.05Y-3.5
X7.05Y-3.6
X7.05Y-3.7
X7.05Y-3.8
T5
X6.7Y-3.25
X6.7Y-4.65
X8.Y-3.25
X8.Y-4.65
T0
M30
