G04 #@! TF.FileFunction,Copper,L2,Bot,Signal*
%FSLAX46Y46*%
G04 Gerber Fmt 4.6, Leading zero omitted, Abs format (unit mm)*
G04 Created by KiCad (PCBNEW 4.0.7-e0-6372~58~ubuntu16.10.1) date Fri Jul 21 11:45:41 2017*
%MOMM*%
%LPD*%
G01*
G04 APERTURE LIST*
%ADD10C,0.100000*%
%ADD11C,4.064000*%
%ADD12C,1.998980*%
%ADD13C,1.600000*%
%ADD14O,1.600000X1.600000*%
%ADD15R,1.727200X1.727200*%
%ADD16O,1.727200X1.727200*%
%ADD17O,1.200000X2.000000*%
%ADD18R,1.700000X1.700000*%
%ADD19O,1.700000X1.700000*%
%ADD20R,1.600000X1.600000*%
%ADD21C,0.500000*%
%ADD22C,0.250000*%
G04 APERTURE END LIST*
D10*
D11*
X170180000Y-118110000D03*
X170180000Y-82550000D03*
X203200000Y-82550000D03*
D12*
X203200000Y-107950000D03*
X200660000Y-107950000D03*
X198120000Y-107950000D03*
X195580000Y-107950000D03*
X193040000Y-107950000D03*
X190500000Y-107950000D03*
X203200000Y-105410000D03*
X200660000Y-105410000D03*
X198120000Y-105410000D03*
X195580000Y-105410000D03*
X193040000Y-105410000D03*
X190500000Y-105410000D03*
X203200000Y-102870000D03*
X200660000Y-102870000D03*
X198120000Y-102870000D03*
X195580000Y-102870000D03*
X193040000Y-102870000D03*
X190500000Y-102870000D03*
X203200000Y-100330000D03*
X200660000Y-100330000D03*
X198120000Y-100330000D03*
X195580000Y-100330000D03*
X193040000Y-100330000D03*
X190500000Y-100330000D03*
X203200000Y-97790000D03*
X200660000Y-97790000D03*
X198120000Y-97790000D03*
X195580000Y-97790000D03*
X193040000Y-97790000D03*
X190500000Y-97790000D03*
X203200000Y-95250000D03*
X200660000Y-95250000D03*
X198120000Y-95250000D03*
X195580000Y-95250000D03*
X193040000Y-95250000D03*
X190500000Y-95250000D03*
X203200000Y-92710000D03*
X200660000Y-92710000D03*
X198120000Y-92710000D03*
X195580000Y-92710000D03*
X193040000Y-92710000D03*
X190500000Y-92710000D03*
X203200000Y-90170000D03*
X200660000Y-90170000D03*
X198120000Y-90170000D03*
X195580000Y-90170000D03*
X193040000Y-90170000D03*
X190500000Y-90170000D03*
X203200000Y-87630000D03*
X200660000Y-87630000D03*
X198120000Y-87630000D03*
X195580000Y-87630000D03*
X193040000Y-87630000D03*
X190500000Y-87630000D03*
X198120000Y-85090000D03*
X195580000Y-85090000D03*
X193040000Y-85090000D03*
X190500000Y-85090000D03*
X198120000Y-82550000D03*
X195580000Y-82550000D03*
X193040000Y-82550000D03*
D13*
X186690000Y-111760000D03*
D14*
X186690000Y-119260000D03*
D15*
X179070000Y-96520000D03*
D16*
X176530000Y-96520000D03*
X179070000Y-93980000D03*
X176530000Y-93980000D03*
X179070000Y-91440000D03*
X176530000Y-91440000D03*
X179070000Y-88900000D03*
X176530000Y-88900000D03*
X179070000Y-86360000D03*
X176530000Y-86360000D03*
D17*
X161290000Y-100330000D03*
X161290000Y-82550000D03*
X158750000Y-100330000D03*
X158750000Y-82550000D03*
X156210000Y-100330000D03*
X156210000Y-82550000D03*
X153670000Y-100330000D03*
X153670000Y-82550000D03*
X151130000Y-100330000D03*
X151130000Y-82550000D03*
D15*
X161290000Y-90170000D03*
D16*
X161290000Y-92710000D03*
X158750000Y-90170000D03*
X158750000Y-92710000D03*
X156210000Y-90170000D03*
X156210000Y-92710000D03*
X153670000Y-90170000D03*
X153670000Y-92710000D03*
X151130000Y-90170000D03*
X151130000Y-92710000D03*
D18*
X187960000Y-107950000D03*
D19*
X187960000Y-105410000D03*
X187960000Y-102870000D03*
X187960000Y-100330000D03*
X187960000Y-97790000D03*
X187960000Y-95250000D03*
X187960000Y-92710000D03*
X187960000Y-90170000D03*
X187960000Y-87630000D03*
X187960000Y-85090000D03*
X187960000Y-82550000D03*
D20*
X180340000Y-106680000D03*
D13*
X175340000Y-106680000D03*
D20*
X195580000Y-113030000D03*
D13*
X195580000Y-118030000D03*
D12*
X190500000Y-82550000D03*
D11*
X203200000Y-118110000D03*
D21*
X187960000Y-107950000D02*
X186690000Y-107950000D01*
X186690000Y-107950000D02*
X186690000Y-111760000D01*
X186690000Y-111760000D02*
X195580000Y-111760000D01*
X195580000Y-111760000D02*
X195580000Y-113030000D01*
X175260000Y-96520000D02*
X173990000Y-96520000D01*
X161290000Y-97790000D02*
X162560000Y-96520000D01*
X162560000Y-96520000D02*
X173990000Y-96520000D01*
X161290000Y-97790000D02*
X161290000Y-100330000D01*
X175260000Y-96520000D02*
X176530000Y-96520000D01*
X187960000Y-102870000D02*
X180340000Y-102870000D01*
X179070000Y-104140000D02*
X175340000Y-104140000D01*
X180340000Y-102870000D02*
X179070000Y-104140000D01*
X186690000Y-119260000D02*
X195460000Y-119260000D01*
X195580000Y-119140000D02*
X195580000Y-118030000D01*
X195460000Y-119260000D02*
X195580000Y-119140000D01*
X176530000Y-96520000D02*
X175260000Y-96520000D01*
X175260000Y-96520000D02*
X175340000Y-96600000D01*
X175340000Y-96600000D02*
X175340000Y-104140000D01*
X175340000Y-104140000D02*
X175340000Y-106680000D01*
X175340000Y-106680000D02*
X175260000Y-106760000D01*
X175260000Y-106760000D02*
X175260000Y-110490000D01*
X175260000Y-110490000D02*
X176530000Y-111760000D01*
X176530000Y-111760000D02*
X182880000Y-111760000D01*
X182880000Y-111760000D02*
X184150000Y-113030000D01*
X184150000Y-113030000D02*
X184150000Y-116720000D01*
X184150000Y-116720000D02*
X186690000Y-119260000D01*
X161290000Y-100330000D02*
X161290000Y-92710000D01*
X180340000Y-106680000D02*
X181610000Y-106680000D01*
X182880000Y-105410000D02*
X187960000Y-105410000D01*
X181610000Y-106680000D02*
X182880000Y-105410000D01*
X161290000Y-90170000D02*
X161290000Y-82550000D01*
D22*
X158750000Y-100330000D02*
X158750000Y-92710000D01*
X158750000Y-90170000D02*
X158750000Y-82550000D01*
X156210000Y-100330000D02*
X156210000Y-92710000D01*
X156210000Y-90170000D02*
X156210000Y-82550000D01*
X153670000Y-100330000D02*
X153670000Y-92710000D01*
X153670000Y-90170000D02*
X153670000Y-82550000D01*
X151130000Y-92710000D02*
X151130000Y-100330000D01*
X151130000Y-90170000D02*
X151130000Y-82550000D01*
X179070000Y-93980000D02*
X182880000Y-93980000D01*
X182880000Y-100330000D02*
X187960000Y-100330000D01*
X182880000Y-93980000D02*
X182880000Y-100330000D01*
X176530000Y-93980000D02*
X177800000Y-92710000D01*
X185420000Y-97790000D02*
X187960000Y-97790000D01*
X185420000Y-95250000D02*
X185420000Y-97790000D01*
X182880000Y-92710000D02*
X185420000Y-95250000D01*
X177800000Y-92710000D02*
X182880000Y-92710000D01*
X179070000Y-91440000D02*
X184150000Y-91440000D01*
X186690000Y-95250000D02*
X187960000Y-95250000D01*
X185420000Y-93980000D02*
X186690000Y-95250000D01*
X185420000Y-92710000D02*
X185420000Y-93980000D01*
X184150000Y-91440000D02*
X185420000Y-92710000D01*
X176530000Y-91440000D02*
X177800000Y-90170000D01*
X186690000Y-92710000D02*
X187960000Y-92710000D01*
X184150000Y-90170000D02*
X186690000Y-92710000D01*
X177800000Y-90170000D02*
X184150000Y-90170000D01*
X179070000Y-88900000D02*
X185420000Y-88900000D01*
X186690000Y-90170000D02*
X187960000Y-90170000D01*
X185420000Y-88900000D02*
X186690000Y-90170000D01*
X176530000Y-88900000D02*
X177800000Y-87630000D01*
X177800000Y-87630000D02*
X187960000Y-87630000D01*
X179070000Y-86360000D02*
X179070000Y-85090000D01*
X179070000Y-85090000D02*
X187960000Y-85090000D01*
X176530000Y-86360000D02*
X176530000Y-82550000D01*
X176530000Y-82550000D02*
X187960000Y-82550000D01*
M02*
