G04 #@! TF.FileFunction,Copper,L1,Top,Signal*
%FSLAX46Y46*%
G04 Gerber Fmt 4.6, Leading zero omitted, Abs format (unit mm)*
G04 Created by KiCad (PCBNEW 4.0.7-e0-6372~58~ubuntu16.10.1) date Fri Jul 21 11:45:41 2017*
%MOMM*%
%LPD*%
G01*
G04 APERTURE LIST*
%ADD10C,0.100000*%
%ADD11C,4.064000*%
%ADD12C,1.998980*%
%ADD13C,1.600000*%
%ADD14O,1.600000X1.600000*%
%ADD15R,1.727200X1.727200*%
%ADD16O,1.727200X1.727200*%
%ADD17O,1.200000X2.000000*%
%ADD18R,1.700000X1.700000*%
%ADD19O,1.700000X1.700000*%
%ADD20R,2.000000X3.800000*%
%ADD21R,2.000000X1.500000*%
%ADD22R,1.600000X1.600000*%
%ADD23C,0.500000*%
G04 APERTURE END LIST*
D10*
D11*
X170180000Y-118110000D03*
X170180000Y-82550000D03*
X203200000Y-82550000D03*
D12*
X203200000Y-107950000D03*
X200660000Y-107950000D03*
X198120000Y-107950000D03*
X195580000Y-107950000D03*
X193040000Y-107950000D03*
X190500000Y-107950000D03*
X203200000Y-105410000D03*
X200660000Y-105410000D03*
X198120000Y-105410000D03*
X195580000Y-105410000D03*
X193040000Y-105410000D03*
X190500000Y-105410000D03*
X203200000Y-102870000D03*
X200660000Y-102870000D03*
X198120000Y-102870000D03*
X195580000Y-102870000D03*
X193040000Y-102870000D03*
X190500000Y-102870000D03*
X203200000Y-100330000D03*
X200660000Y-100330000D03*
X198120000Y-100330000D03*
X195580000Y-100330000D03*
X193040000Y-100330000D03*
X190500000Y-100330000D03*
X203200000Y-97790000D03*
X200660000Y-97790000D03*
X198120000Y-97790000D03*
X195580000Y-97790000D03*
X193040000Y-97790000D03*
X190500000Y-97790000D03*
X203200000Y-95250000D03*
X200660000Y-95250000D03*
X198120000Y-95250000D03*
X195580000Y-95250000D03*
X193040000Y-95250000D03*
X190500000Y-95250000D03*
X203200000Y-92710000D03*
X200660000Y-92710000D03*
X198120000Y-92710000D03*
X195580000Y-92710000D03*
X193040000Y-92710000D03*
X190500000Y-92710000D03*
X203200000Y-90170000D03*
X200660000Y-90170000D03*
X198120000Y-90170000D03*
X195580000Y-90170000D03*
X193040000Y-90170000D03*
X190500000Y-90170000D03*
X203200000Y-87630000D03*
X200660000Y-87630000D03*
X198120000Y-87630000D03*
X195580000Y-87630000D03*
X193040000Y-87630000D03*
X190500000Y-87630000D03*
X198120000Y-85090000D03*
X195580000Y-85090000D03*
X193040000Y-85090000D03*
X190500000Y-85090000D03*
X198120000Y-82550000D03*
X195580000Y-82550000D03*
X193040000Y-82550000D03*
D13*
X186690000Y-111760000D03*
D14*
X186690000Y-119260000D03*
D15*
X179070000Y-96520000D03*
D16*
X176530000Y-96520000D03*
X179070000Y-93980000D03*
X176530000Y-93980000D03*
X179070000Y-91440000D03*
X176530000Y-91440000D03*
X179070000Y-88900000D03*
X176530000Y-88900000D03*
X179070000Y-86360000D03*
X176530000Y-86360000D03*
D17*
X161290000Y-100330000D03*
X161290000Y-82550000D03*
X158750000Y-100330000D03*
X158750000Y-82550000D03*
X156210000Y-100330000D03*
X156210000Y-82550000D03*
X153670000Y-100330000D03*
X153670000Y-82550000D03*
X151130000Y-100330000D03*
X151130000Y-82550000D03*
D15*
X161290000Y-90170000D03*
D16*
X161290000Y-92710000D03*
X158750000Y-90170000D03*
X158750000Y-92710000D03*
X156210000Y-90170000D03*
X156210000Y-92710000D03*
X153670000Y-90170000D03*
X153670000Y-92710000D03*
X151130000Y-90170000D03*
X151130000Y-92710000D03*
D18*
X187960000Y-107950000D03*
D19*
X187960000Y-105410000D03*
X187960000Y-102870000D03*
X187960000Y-100330000D03*
X187960000Y-97790000D03*
X187960000Y-95250000D03*
X187960000Y-92710000D03*
X187960000Y-90170000D03*
X187960000Y-87630000D03*
X187960000Y-85090000D03*
X187960000Y-82550000D03*
D20*
X174650000Y-116840000D03*
D21*
X180950000Y-116840000D03*
X180950000Y-114540000D03*
X180950000Y-119140000D03*
D22*
X180340000Y-106680000D03*
D13*
X175340000Y-106680000D03*
D22*
X195580000Y-113030000D03*
D13*
X195580000Y-118030000D03*
D12*
X190500000Y-82550000D03*
D11*
X203200000Y-118110000D03*
D23*
X174650000Y-116840000D02*
X180950000Y-116840000D01*
X180950000Y-116840000D02*
X185420000Y-116840000D01*
X186690000Y-115570000D02*
X186690000Y-111760000D01*
X185420000Y-116840000D02*
X186690000Y-115570000D01*
X180950000Y-119140000D02*
X186570000Y-119140000D01*
X186570000Y-119140000D02*
X186690000Y-119260000D01*
X172720000Y-100330000D02*
X168910000Y-100330000D01*
X166370000Y-90170000D02*
X167640000Y-91440000D01*
X167640000Y-91440000D02*
X167640000Y-99060000D01*
X167640000Y-99060000D02*
X168910000Y-100330000D01*
X166370000Y-90170000D02*
X161290000Y-90170000D01*
X171450000Y-100330000D02*
X172720000Y-100330000D01*
X172720000Y-100330000D02*
X179070000Y-100330000D01*
X180340000Y-106680000D02*
X179070000Y-105410000D01*
X179070000Y-105410000D02*
X179070000Y-100330000D01*
X179070000Y-100330000D02*
X179070000Y-96520000D01*
X180950000Y-114540000D02*
X182640000Y-114540000D01*
X182880000Y-109220000D02*
X180340000Y-106680000D01*
X182880000Y-114300000D02*
X182880000Y-109220000D01*
X182640000Y-114540000D02*
X182880000Y-114300000D01*
M02*
