M48
;DRILL file {KiCad 4.0.7-e0-6372~58~ubuntu16.10.1} date Fri Jul 21 12:49:33 2017
;FORMAT={-:-/ absolute / inch / decimal}
FMAT,2
INCH,TZ
T1C0.031
T2C0.032
T3C0.039
T4C0.040
T5C0.120
%
G90
G05
M72
T1
X6.3531Y-4.
X6.55Y-4.
X7.2Y-4.2
X7.2Y-4.3969
T2
X7.1Y-3.
X7.1Y-3.1
X7.1Y-3.2
X7.1Y-3.3
X7.1Y-3.4
X7.1Y-3.5
X7.1Y-3.6
X7.1Y-3.7
X7.1Y-3.8
X7.1Y-3.9
X7.1Y-4.
X7.2Y-3.
X7.2Y-3.1
X7.2Y-3.2
X7.2Y-3.3
X7.2Y-3.4
X7.2Y-3.5
X7.2Y-3.6
X7.2Y-3.7
X7.2Y-3.8
X7.2Y-3.9
X7.2Y-4.
X7.3Y-3.
X7.3Y-3.1
X7.3Y-3.2
X7.3Y-3.3
X7.3Y-3.4
X7.3Y-3.5
X7.3Y-3.6
X7.3Y-3.7
X7.3Y-3.8
X7.3Y-3.9
X7.3Y-4.
X7.4Y-3.
X7.4Y-3.1
X7.4Y-3.2
X7.4Y-3.3
X7.4Y-3.4
X7.4Y-3.5
X7.4Y-3.6
X7.4Y-3.7
X7.4Y-3.8
X7.4Y-3.9
X7.4Y-4.
X7.5Y-3.2
X7.5Y-3.3
X7.5Y-3.4
X7.5Y-3.5
X7.5Y-3.6
X7.5Y-3.7
X7.5Y-3.8
X7.5Y-3.9
X7.5Y-4.
X7.6Y-3.2
X7.6Y-3.3
X7.6Y-3.4
X7.6Y-3.5
X7.6Y-3.6
X7.6Y-3.7
X7.6Y-3.8
X7.6Y-3.9
X7.6Y-4.
T3
X6.85Y-4.2
X6.85Y-4.3969
X7.Y-3.
X7.Y-3.1
X7.Y-3.2
X7.Y-3.3
X7.Y-3.4
X7.Y-3.5
X7.Y-3.6
X7.Y-3.7
X7.Y-3.8
X7.Y-3.9
X7.Y-4.
T4
X6.4Y-3.2
X6.4Y-3.3
X6.4Y-3.4
X6.4Y-3.5
X6.4Y-3.6
X6.5Y-3.2
X6.5Y-3.3
X6.5Y-3.4
X6.5Y-3.5
X6.5Y-3.6
T5
X6.15Y-3.05
X6.15Y-4.35
X7.55Y-3.05
X7.55Y-4.35
T0
M30
