G04 #@! TF.FileFunction,Copper,L1,Top,Signal*
%FSLAX46Y46*%
G04 Gerber Fmt 4.6, Leading zero omitted, Abs format (unit mm)*
G04 Created by KiCad (PCBNEW 4.0.7-e0-6372~58~ubuntu16.10.1) date Fri Jul 21 12:49:51 2017*
%MOMM*%
%LPD*%
G01*
G04 APERTURE LIST*
%ADD10C,0.100000*%
%ADD11C,4.064000*%
%ADD12C,1.998980*%
%ADD13R,1.600000X1.600000*%
%ADD14C,1.600000*%
%ADD15C,2.000000*%
%ADD16R,1.727200X1.727200*%
%ADD17O,1.727200X1.727200*%
%ADD18R,1.700000X1.700000*%
%ADD19O,1.700000X1.700000*%
%ADD20R,2.000000X3.800000*%
%ADD21R,2.000000X1.500000*%
%ADD22C,0.500000*%
G04 APERTURE END LIST*
D10*
D11*
X156210000Y-110490000D03*
X156210000Y-77470000D03*
X191770000Y-77470000D03*
D12*
X193040000Y-101600000D03*
X190500000Y-101600000D03*
X187960000Y-101600000D03*
X185420000Y-101600000D03*
X182880000Y-101600000D03*
X180340000Y-101600000D03*
X193040000Y-99060000D03*
X190500000Y-99060000D03*
X187960000Y-99060000D03*
X185420000Y-99060000D03*
X182880000Y-99060000D03*
X180340000Y-99060000D03*
X193040000Y-96520000D03*
X190500000Y-96520000D03*
X187960000Y-96520000D03*
X185420000Y-96520000D03*
X182880000Y-96520000D03*
X180340000Y-96520000D03*
X193040000Y-93980000D03*
X190500000Y-93980000D03*
X187960000Y-93980000D03*
X185420000Y-93980000D03*
X182880000Y-93980000D03*
X180340000Y-93980000D03*
X193040000Y-91440000D03*
X190500000Y-91440000D03*
X187960000Y-91440000D03*
X185420000Y-91440000D03*
X182880000Y-91440000D03*
X180340000Y-91440000D03*
X193040000Y-88900000D03*
X190500000Y-88900000D03*
X187960000Y-88900000D03*
X185420000Y-88900000D03*
X182880000Y-88900000D03*
X180340000Y-88900000D03*
X193040000Y-86360000D03*
X190500000Y-86360000D03*
X187960000Y-86360000D03*
X185420000Y-86360000D03*
X182880000Y-86360000D03*
X180340000Y-86360000D03*
X193040000Y-83820000D03*
X190500000Y-83820000D03*
X187960000Y-83820000D03*
X185420000Y-83820000D03*
X182880000Y-83820000D03*
X180340000Y-83820000D03*
X193040000Y-81280000D03*
X190500000Y-81280000D03*
X187960000Y-81280000D03*
X185420000Y-81280000D03*
X182880000Y-81280000D03*
X180340000Y-81280000D03*
X187960000Y-78740000D03*
X185420000Y-78740000D03*
X182880000Y-78740000D03*
X180340000Y-78740000D03*
X187960000Y-76200000D03*
X185420000Y-76200000D03*
X182880000Y-76200000D03*
D13*
X166370000Y-101600000D03*
D14*
X161370000Y-101600000D03*
D13*
X182880000Y-106680000D03*
D14*
X182880000Y-111680000D03*
D15*
X173990000Y-106680000D03*
X173990000Y-111680000D03*
D16*
X165100000Y-91440000D03*
D17*
X162560000Y-91440000D03*
X165100000Y-88900000D03*
X162560000Y-88900000D03*
X165100000Y-86360000D03*
X162560000Y-86360000D03*
X165100000Y-83820000D03*
X162560000Y-83820000D03*
X165100000Y-81280000D03*
X162560000Y-81280000D03*
D18*
X177800000Y-101600000D03*
D19*
X177800000Y-99060000D03*
X177800000Y-96520000D03*
X177800000Y-93980000D03*
X177800000Y-91440000D03*
X177800000Y-88900000D03*
X177800000Y-86360000D03*
X177800000Y-83820000D03*
X177800000Y-81280000D03*
X177800000Y-78740000D03*
X177800000Y-76200000D03*
D20*
X160680000Y-110490000D03*
D21*
X166980000Y-110490000D03*
X166980000Y-108190000D03*
X166980000Y-112790000D03*
D12*
X180340000Y-76200000D03*
D11*
X191770000Y-110490000D03*
D22*
X166370000Y-101600000D02*
X167640000Y-102870000D01*
X167640000Y-102870000D02*
X167640000Y-107530000D01*
X167640000Y-107530000D02*
X166980000Y-108190000D01*
X173990000Y-111680000D02*
X174070000Y-111680000D01*
X174070000Y-111680000D02*
X176530000Y-109220000D01*
X175260000Y-96520000D02*
X177800000Y-96520000D01*
X173990000Y-97790000D02*
X175260000Y-96520000D01*
X173990000Y-102870000D02*
X173990000Y-97790000D01*
X176530000Y-105410000D02*
X173990000Y-102870000D01*
X176530000Y-109220000D02*
X176530000Y-105410000D01*
X166980000Y-112790000D02*
X173750000Y-112790000D01*
X173750000Y-112790000D02*
X173990000Y-112550000D01*
X173990000Y-112550000D02*
X173990000Y-111680000D01*
X166980000Y-110490000D02*
X160680000Y-110490000D01*
X173990000Y-106680000D02*
X173990000Y-107950000D01*
X171450000Y-110490000D02*
X166980000Y-110490000D01*
X173990000Y-107950000D02*
X171450000Y-110490000D01*
M02*
